HIERARCHY
ROOT Hips
{
	OFFSET 0.000000 0.000000 0.000000
	CHANNELS 6 Xposition Yposition Zposition Zrotation Yrotation Xrotation 
	JOINT LHipJoint
	{
		OFFSET 0.000000 0.000000 0.000000
		CHANNELS 3 Zrotation Yrotation Xrotation
		JOINT LeftUpLeg
		{
			OFFSET 1.363060 -1.794630 0.839290
			CHANNELS 3 Zrotation Yrotation Xrotation
			JOINT LeftLeg
			{
				OFFSET 2.448110 -6.726130 0.000000
				CHANNELS 3 Zrotation Yrotation Xrotation
				JOINT LeftFoot
				{
					OFFSET 2.562200 -7.039590 0.000000
					CHANNELS 3 Zrotation Yrotation Xrotation
					JOINT LeftToeBase
					{
						OFFSET 0.157640 -0.433110 2.322550
						CHANNELS 3 Zrotation Yrotation Xrotation
						End Site
						{
							OFFSET 0.000000 0.000000 0.000000
						}
					}
				}
			}
		}
	}
	JOINT RHipJoint
	{
		OFFSET 0.000000 0.000000 0.000000
		CHANNELS 3 Zrotation Yrotation Xrotation
		JOINT RightUpLeg
		{
			OFFSET -1.305520 -1.794630 0.839290
			CHANNELS 3 Zrotation Yrotation Xrotation
			JOINT RightLeg
			{
				OFFSET -2.542530 -6.985550 0.000000
				CHANNELS 3 Zrotation Yrotation Xrotation
				JOINT RightFoot
				{
					OFFSET -2.568260 -7.056230 0.000000
					CHANNELS 3 Zrotation Yrotation Xrotation
					JOINT RightToeBase
					{
						OFFSET -0.164730 -0.452590 2.363150
						CHANNELS 3 Zrotation Yrotation Xrotation
						End Site
						{
							OFFSET 0.000000 0.000000 0.000000
						}
					}
				}
			}
		}
	}
	JOINT LowerBack
	{
		OFFSET 0.000000 0.000000 0.000000
		CHANNELS 3 Zrotation Yrotation Xrotation
		JOINT Spine
		{
			OFFSET 0.028270 2.035590 -0.193380
			CHANNELS 3 Zrotation Yrotation Xrotation
			JOINT Spine1
			{
				OFFSET 0.056720 2.048850 -0.042750
				CHANNELS 3 Zrotation Yrotation Xrotation
				JOINT Neck
				{
					OFFSET 0.000000 0.000000 0.000000
					CHANNELS 3 Zrotation Yrotation Xrotation
					JOINT Neck1
					{
						OFFSET -0.054170 1.746240 0.172020
						CHANNELS 3 Zrotation Yrotation Xrotation
						JOINT Head
						{
							OFFSET 0.104070 1.761360 -0.123970
							CHANNELS 3 Zrotation Yrotation Xrotation
							End Site
							{
								OFFSET 0.000000 0.000000 0.000000
							}
						}
					}
				}
				JOINT LeftShoulder
				{
					OFFSET 0.000000 0.000000 0.000000
					CHANNELS 3 Zrotation Yrotation Xrotation
					JOINT LeftArm
					{
						OFFSET 3.362410 1.200890 -0.311210
						CHANNELS 3 Zrotation Yrotation Xrotation
						JOINT LeftForeArm
						{
							OFFSET 4.983000 -0.000000 -0.000000
							CHANNELS 3 Zrotation Yrotation Xrotation
							JOINT LeftHand
							{
								OFFSET 3.483560 -0.000000 -0.000000
								CHANNELS 3 Zrotation Yrotation Xrotation
								JOINT LeftFingerBase
								{
									OFFSET 0.000000 0.000000 0.000000
									CHANNELS 3 Zrotation Yrotation Xrotation
									JOINT LeftHandIndex1
									{
										OFFSET 0.715260 -0.000000 -0.000000
										CHANNELS 3 Zrotation Yrotation Xrotation
										End Site
										{
											OFFSET 0.000000 0.000000 0.000000
										}
									}
								}
								JOINT LThumb
								{
									OFFSET 0.000000 0.000000 0.000000
									CHANNELS 3 Zrotation Yrotation Xrotation
									End Site
									{
										OFFSET 0.000000 0.000000 0.000000
									}
								}
							}
						}
					}
				}
				JOINT RightShoulder
				{
					OFFSET 0.000000 0.000000 0.000000
					CHANNELS 3 Zrotation Yrotation Xrotation
					JOINT RightArm
					{
						OFFSET -3.136600 1.374050 -0.404650
						CHANNELS 3 Zrotation Yrotation Xrotation
						JOINT RightForeArm
						{
							OFFSET -5.241900 -0.000000 -0.000000
							CHANNELS 3 Zrotation Yrotation Xrotation
							JOINT RightHand
							{
								OFFSET -3.444170 -0.000000 -0.000000
								CHANNELS 3 Zrotation Yrotation Xrotation
								JOINT RightFingerBase
								{
									OFFSET 0.000000 0.000000 0.000000
									CHANNELS 3 Zrotation Yrotation Xrotation
									JOINT RightHandIndex1
									{
										OFFSET -0.622530 -0.000000 -0.000000
										CHANNELS 3 Zrotation Yrotation Xrotation
										End Site
										{
											OFFSET 0.000000 0.000000 0.000000
										}
									}
								}
								JOINT RThumb
								{
									OFFSET 0.000000 0.000000 0.000000
									CHANNELS 3 Zrotation Yrotation Xrotation
									End Site
									{
										OFFSET 0.000000 0.000000 0.000000
									}
								}
							}
						}
					}
				}
			}
		}
	}
}
MOTION
Frames: 9
Frame Time: 0.008333
-2.978780 17.722579 16.458754 -178.993938 -18.603101 -155.459221 5.916378 1.016772 0.203289 -28.733566 -9.329003 -42.066651 0.437704 10.769632 26.455699 -2.097133 16.667635 -25.436620 0.965200 6.255300 17.527100 -7.407012 -2.538614 -1.723214 31.267636 1.805051 0.898008 0.882012 0.564626 1.035021 4.218021 -23.127038 -24.240016 -0.494500 -4.508500 12.511800 0.743533 3.116346 -9.361074 0.905584 2.940462 -7.100966 -0.901163 1.246197 -2.324675 -1.407741 0.542030 -17.352405 4.929980 -3.119679 24.718715 -0.359000 -2.119700 17.926700 -7.272988 -9.424758 2.775495 -80.690646 14.895350 -11.699600 15.929684 -20.696179 -2.888777 2.711871 4.417317 5.458557 22.396807 24.951591 7.264400 -7.125000 0.000000 0.000000 -8.380800 51.278600 -1.303900 7.282418 11.640664 2.093760 76.922082 -8.877359 -6.509022 1.977618 -2.065771 -0.380164 -2.207815 0.642467 30.713340 -16.317840 4.617904 -1.322100 7.125000 0.000000 0.000000 9.377300 -24.543500 4.695100 
-3.009358 17.727021 16.420841 -179.131328 -18.771094 -155.220426 5.917527 1.016919 0.217741 -28.868185 -9.544102 -41.989149 0.420755 10.744869 26.375665 -2.051505 16.501306 -25.433734 0.978400 6.296700 17.647600 -7.410652 -2.548907 -1.725889 31.314542 1.621432 0.862686 0.881724 0.561126 1.023493 4.473936 -23.903283 -24.115669 -0.443800 -4.274400 11.849900 0.541296 2.944245 -9.466466 0.939338 2.702184 -7.153771 -0.752917 1.130087 -2.390544 -1.543516 0.718463 -17.470130 5.050697 -2.818244 24.829129 -0.240500 -2.027000 18.044200 -7.280440 -9.431657 2.786246 -80.668502 15.126600 -11.001964 16.031598 -20.824107 -2.923083 2.692511 4.456651 5.386242 22.380637 25.251675 7.355200 -7.125000 0.000000 0.000000 -8.466100 51.552000 -1.374400 7.289563 11.655302 2.082690 76.999437 -9.144538 -6.202954 1.920682 -1.995722 -0.364343 -2.156946 0.646994 31.060511 -15.927059 4.587785 -1.275800 7.125000 0.000000 0.000000 9.636900 -24.603800 4.815000 
-3.058738 17.726091 16.368673 -178.984424 -18.753280 -155.331855 5.919171 1.016815 0.228104 -28.749881 -9.657984 -41.798995 0.481291 10.868569 26.766365 -1.893876 16.194038 -25.976888 0.939000 6.172100 17.284700 -7.435393 -2.557112 -1.762407 31.545281 1.492831 1.304501 0.882435 0.565350 1.009866 4.844707 -24.892798 -23.638064 -0.346300 -3.781100 10.461700 0.679732 2.736365 -9.479849 1.064008 2.410886 -7.101102 -0.478418 1.006306 -2.144408 -1.803041 1.003306 -17.998852 5.061216 -2.247475 24.997262 -0.140300 -1.858900 18.333900 -7.232979 -9.447998 2.735459 -81.141134 14.845476 -11.780788 15.919240 -20.711164 -2.885962 2.779558 4.355123 6.126414 22.456446 24.688957 7.199900 -7.125000 0.000000 0.000000 -8.266700 51.044100 -1.238200 7.310095 11.620427 2.127118 76.621893 -9.141102 -5.473022 1.804152 -1.873335 -0.345703 -2.097226 0.657753 31.198439 -15.483861 4.646922 -1.242200 7.125000 0.000000 0.000000 9.929400 -24.592700 4.968000 
-3.129501 17.720100 16.291401 -178.229658 -18.364484 -156.499506 5.902949 1.048380 0.212454 -28.370832 -8.816691 -40.753350 0.564150 10.912689 27.137914 -1.734066 15.846214 -26.473814 0.877400 5.971600 16.702000 -7.424864 -2.551180 -1.830440 32.141744 1.369748 2.921421 0.896859 0.598339 1.018808 5.183573 -25.780646 -23.213513 -0.253100 -3.237200 8.939800 1.708204 3.462858 -9.260072 0.815206 3.377194 -6.981549 -1.597797 1.427097 -2.065967 -1.103358 0.539805 -16.800741 5.050890 -3.368484 24.877251 -0.351300 -2.184100 17.844700 -7.279164 -9.381691 2.849205 -79.875021 15.100149 -10.544224 15.694263 -20.356058 -2.762809 2.831992 4.098757 7.287131 21.968889 23.149131 6.567200 -7.125000 0.000000 0.000000 -8.325500 49.583300 -0.946700 7.243024 11.657196 2.058138 77.960895 -10.128403 -6.851704 1.654562 -1.629789 -0.324298 -2.046183 0.624240 31.043749 -15.030989 4.493252 -1.167000 7.125000 0.000000 0.000000 10.231600 -24.765500 5.082100 
-3.168757 17.716897 16.230555 -178.175345 -18.091423 -156.899725 5.882131 1.051193 0.203339 -28.334796 -8.736408 -40.161447 0.622984 11.000156 27.494054 -1.484453 15.315364 -27.213386 0.940900 6.178000 17.301900 -7.446675 -2.552504 -1.907469 32.267375 1.193534 3.862355 0.897690 0.616532 1.016981 5.492033 -26.537937 -22.698728 -0.233800 -3.112100 8.591000 1.446022 3.185389 -9.157497 1.018383 3.053132 -6.777046 -0.826285 1.344410 -1.469705 -1.548835 0.730465 -17.414567 5.020577 -2.813689 24.886704 -0.252600 -2.032000 18.026000 -7.210140 -9.366456 2.806740 -80.681186 14.611515 -11.357338 15.757891 -20.507156 -2.760274 2.848813 3.978430 7.814818 21.685021 22.479386 6.277700 -7.125000 0.000000 0.000000 -8.426600 48.949400 -0.826100 7.289161 11.558763 2.123584 76.913018 -9.373858 -5.971385 2.099668 -2.173218 -0.324399 -2.011445 0.644872 30.753137 -14.829602 4.633755 -1.170600 7.125000 0.000000 0.000000 10.362300 -24.675800 5.171000 
-3.196649 17.716071 16.191816 -177.882012 -17.956849 -156.938908 5.884097 1.043729 0.201941 -27.972988 -8.844457 -40.081115 0.660044 11.081580 27.748418 -1.183200 14.544123 -27.856132 1.077200 6.597300 18.527800 -7.475778 -2.553410 -1.931614 32.719852 1.250630 4.259448 0.898353 0.610839 0.995397 5.868144 -27.441524 -21.981226 -0.250300 -3.219300 8.890000 1.518261 3.231630 -9.323893 1.071993 3.094127 -6.720623 -0.662213 1.377635 -1.200264 -1.592240 0.711717 -17.635643 5.013348 -2.807286 24.936691 -0.251700 -2.031200 18.125600 -7.210883 -9.335143 2.826557 -80.755769 14.586202 -10.720439 15.984944 -20.819127 -2.830389 2.849086 4.024151 7.350296 21.936600 22.733529 6.431900 -7.125000 0.000000 0.000000 -8.278900 49.220000 -0.866900 7.306286 11.528811 2.125977 76.779510 -9.260528 -5.903280 2.146175 -2.231555 -0.319388 -1.981291 0.673012 30.515216 -14.598774 4.880048 -1.193400 7.125000 0.000000 0.000000 10.512200 -24.481500 5.296400 
-3.234252 17.710079 16.145225 -177.864010 -18.421719 -157.241294 5.898279 1.065885 0.169608 -28.341729 -8.248083 -39.754208 0.685911 11.044565 27.727079 -1.504717 15.150202 -26.739379 0.842500 5.854800 16.363600 -7.489340 -2.539260 -1.872671 33.191231 1.124628 3.454410 0.816566 -0.434331 3.702626 5.844312 -27.653314 -22.629242 -0.221800 -3.031700 8.366900 1.758863 3.329558 -9.266223 0.931260 3.250487 -6.720930 -1.253481 1.422084 -1.283848 -1.166170 0.497710 -17.171862 5.050061 -3.395928 25.001867 -0.352100 -2.192100 18.036300 -7.262058 -9.297620 2.902856 -79.959725 14.887387 -9.457520 16.018303 -20.825759 -2.841485 2.875511 4.039631 7.224130 22.207597 22.834769 6.545700 -7.125000 0.000000 0.000000 -8.075400 49.348200 -0.871000 7.265724 11.577440 2.057508 77.624064 -9.761012 -6.618227 2.150975 -2.186302 -0.301359 -1.924623 0.648348 30.470385 -14.131919 4.742602 -1.121000 7.125000 0.000000 0.000000 10.822800 -24.642500 5.417300 
-3.254809 17.711112 16.114544 -178.197520 -18.511861 -156.871118 5.942885 1.043758 0.118399 -28.693410 -8.554150 -39.695818 0.662742 11.021557 27.626426 -1.590200 15.441449 -26.683283 0.794900 5.691000 15.890300 -7.560741 -2.474169 -1.684770 33.323150 2.182894 0.671135 0.530427 -2.493295 9.014642 5.370814 -27.063992 -24.528925 -0.213200 -2.972900 8.203300 1.283910 3.028164 -9.295974 0.963944 2.882925 -6.764618 -0.987107 1.246461 -1.379752 -1.360801 0.684023 -17.515059 5.218467 -3.056643 25.148861 -0.192700 -2.087200 18.279800 -7.271251 -9.312376 2.885816 -80.137446 14.920671 -9.693918 16.118826 -20.963136 -2.900583 2.880260 4.160866 7.001948 22.506591 23.684461 6.904600 -7.125000 0.000000 0.000000 -8.007700 50.159300 -1.024100 7.267463 11.597039 2.047040 77.359324 -9.579525 -5.967375 2.393905 -2.444159 -0.240375 -1.700553 0.493037 30.463839 -12.467365 3.679903 -0.788100 7.125000 0.000000 0.000000 11.943300 -25.725100 5.693000 
-3.253673 17.715864 16.112375 -178.747382 -19.371143 -156.060405 5.985909 1.000244 0.120400 -28.652507 -10.109167 -39.686671 0.598263 11.012523 27.452796 -1.186996 14.326778 -27.409254 1.072600 6.583700 18.487700 -7.627921 -2.448748 -1.579468 33.488886 2.249476 -1.605641 0.301446 -3.696765 12.098318 4.985827 -26.531436 -25.885606 -0.344600 -3.771800 10.435500 0.484294 2.463189 -9.635175 1.112370 2.151340 -6.819780 -0.281924 0.914809 -1.333431 -1.602772 0.849149 -17.851547 5.257491 -2.672470 25.203631 -0.111900 -1.972400 18.420800 -7.253855 -9.309789 2.852682 -80.573324 14.793738 -9.636415 16.319853 -21.281384 -3.000776 2.823030 4.361891 6.348022 22.696344 25.063015 7.406100 -7.125000 0.000000 0.000000 -8.170100 51.450800 -1.305400 7.307849 11.575358 2.092400 76.912542 -9.412300 -5.499193 2.183898 -2.261077 -0.270387 -1.800290 0.632104 30.069802 -13.166465 4.738807 -1.025200 7.125000 0.000000 0.000000 11.458600 -24.732800 5.723200 
